/* XPM */
static char *c611fdb26c7f4f22a0628378025a93f1u9f3yPpAVCKYnUld[] = {
/* columns rows colors chars-per-pixel */
"132 132 31 1 ",
"  c black",
". c white",
"X c #464646",
"o c #F8F8F8",
"O c gray68",
"+ c gray54",
"@ c #797979",
"# c gray89",
"$ c #767676",
"% c gray50",
"& c gray66",
"* c #1D1D1D",
"= c gray42",
"- c gray43",
"; c #9B9B9B",
": c gray15",
"> c #BBBBBB",
", c gray19",
"< c gray21",
"1 c #151515",
"2 c #B4B4B4",
"3 c gray39",
"4 c gray25",
"5 c gray85",
"6 c #0E0E0E",
"7 c gray77",
"8 c gray31",
"9 c gray63",
"0 c #D0D0D0",
"q c #EFEFEF",
"w c gray37",
/* pixels */
"                                                                                                                                    ",
"                                                                                                                                    ",
"                                                                                                                                    ",
"                                                                                                                                    ",
"                                                                                                                                    ",
"                                                                                                                                    ",
"                                                                                                                                    ",
"                                                                                                                                    ",
"                                                                                                                                    ",
"                                                                                                                                    ",
"                                                                                                                                    ",
"                                                                                                                                    ",
"                                                                                                                                    ",
"                                                                                                                                    ",
"                                                                                                                                    ",
"                                                                                                                                    ",
"                                                                                                                                    ",
"                                                                                                                                    ",
"                                                                                                                                    ",
"                                                                                                                                    ",
"                                                                                                                                    ",
"                                                                                                                                    ",
"                                                                                                                                    ",
"                                                                                                                                    ",
"                                                                                                                                    ",
"                                                                                                                                    ",
"                                                                                                                                    ",
"                                                                                                                                    ",
"                                                                                                                                    ",
"                                                                                                                                    ",
"                                                                                                                                    ",
"                                                                                                                                    ",
"                                                                                                                                    ",
"                                                                                                                                    ",
"                                                                                                                                    ",
"                                                                                                                                    ",
"                                                                                                                                    ",
"                                                                                                                                    ",
"                                                                                                                                    ",
"                                                                                                                                    ",
"                                                                                                                                    ",
"                                                                                                                                    ",
"                                                                                                                                    ",
"                                                                                                                                    ",
"                                                                                                                                    ",
"                                                                                                                                    ",
"                                                                                                                                    ",
"                                                                                                                                    ",
"                                                                                                                                    ",
"                                                                                                                                    ",
"                                                                                                                                    ",
"                                                                                                                                    ",
"                                                                                                                                    ",
"                                                                                                                                    ",
"                       ,XXXXXXXXX*             6XXXXXXXXXXXXX*         ,XXXXXXXXXXXX4         <XXXXXXXXXXXXX,                       ",
"                       &.oooooooo$             <oooooooooooo.$         O.ooooooooooo#         2.ooooooooooo.&                       ",
"                       O.........$             <.............@         2............#         >.............O                       ",
"                       O.o%$$-7..$             1=--------=2..@         8---------$o.#         >.#3------=9..O                       ",
"                       O.q<   O..$                        ;..@                   *o.#         >.5        %..O                       ",
"                       O.o4   O..$                        ;..@                   :o.#         >.5        %..O                       ",
"                       9o#<   O..$                        ;..@                   :o.#         >.5        %..O                       ",
"                              O..$                        ;..@                   :o.#         >.5        %..O                       ",
"                              O..$                        ;..@                   :o.#         95O        %..O                       ",
"                              O..$                        ;..@                   1o.#                    %..O                       ",
"                              O..$              8O&&&&&&&90..@          ;&&&&&&&&&o.#                    %..O                       ",
"                              O..$              $............@          q...........#                    %..O                       ",
"                              O..$              -.ooooooooo..@          #ooooooooo..#                    %..O                       ",
"                              O..$              6******** ;..@          ********1,o.#                    %..O                       ",
"                              O..$                        ;..@                   :o.#                    %..O                       ",
"                              O..$                        ;..@                   :o.#                    %..O                       ",
"                              O..$                        ;..@                   :o.#                    %..O                       ",
"                              O..$                        ;..@                   :o.#                    %..O                       ",
"                              O..$                        ;..@                   :o.#                    %..O                       ",
"                              O..$                        ;..@                   *o.#                    %..O                       ",
"                           ==3>..;3-8          1=========3O..@         X-=========o.#                    %..O                       ",
"                           .........>          <.............@         2............#                    %..O                       ",
"                           .........>          ,.............@         >............#                    %..O                       ",
"                           +++++++++3          1+++++++++++++<         3++++++++++++@                    4++w                       ",
"                                                                                                                                    ",
"                                                                                                                                    ",
"                                                                                                                                    ",
"                                                                                                                                    ",
"                                                                                                                                    ",
"                                                                                                                                    ",
"                                                                                                                                    ",
"                                                                                                                                    ",
"                                                                                                                                    ",
"                                                                                                                                    ",
"                                                                                                                                    ",
"                                                                                                                                    ",
"                                                                                                                                    ",
"                                                                                                                                    ",
"                                                                                                                                    ",
"                                                                                                                                    ",
"                                                                                                                                    ",
"                                                                                                                                    ",
"                                                                                                                                    ",
"                                                                                                                                    ",
"                                                                                                                                    ",
"                                                                                                                                    ",
"                                                                                                                                    ",
"                                                                                                                                    ",
"                                                                                                                                    ",
"                                                                                                                                    ",
"                                                                                                                                    ",
"                                                                                                                                    ",
"                                                                                                                                    ",
"                                                                                                                                    ",
"                                                                                                                                    ",
"                                                                                                                                    ",
"                                                                                                                                    ",
"                                                                                                                                    ",
"                                                                                                                                    ",
"                                                                                                                                    ",
"                                                                                                                                    ",
"                                                                                                                                    ",
"                                                                                                                                    ",
"                                                                                                                                    ",
"                                                                                                                                    ",
"                                                                                                                                    ",
"                                                                                                                                    ",
"                                                                                                                                    ",
"                                                                                                                                    ",
"                                                                                                                                    ",
"                                                                                                                                    ",
"                                                                                                                                    ",
"                                                                                                                                    ",
"                                                                                                                                    ",
"                                                                                                                                    ",
"                                                                                                                                    ",
"                                                                                                                                    ",
"                                                                                                                                    "
};
